<svg width="30" height="20" viewBox="0 0 30 20" fill="none" xmlns="http://www.w3.org/2000/svg">
<path d="M12.6325 9.013C12.6438 8.54267 12.5957 8.10067 12.488 7.687C12.386 7.26767 12.199 6.9305 11.927 6.6755C11.655 6.41483 11.2668 6.2845 10.7625 6.2845C10.0315 6.2845 9.51015 6.6245 9.19848 7.3045C8.89248 7.9845 8.73948 8.96767 8.73948 10.254C8.73948 11.4667 8.94065 12.3762 9.34298 12.9825C9.75098 13.5832 10.3262 13.8835 11.0685 13.8835C11.6578 13.8835 12.1877 13.7588 12.658 13.5095C13.1283 13.2602 13.5618 12.9882 13.9585 12.6935C14.2248 12.8692 14.4855 13.127 14.7405 13.467C14.9955 13.8013 15.1513 14.1272 15.208 14.4445C14.8793 14.7675 14.4713 15.0678 13.984 15.3455C13.5023 15.6175 12.9697 15.8357 12.386 16C11.8023 16.17 11.196 16.255 10.567 16.255C9.67732 16.255 8.92932 16.0822 8.32298 15.7365C7.72232 15.3852 7.24348 14.9205 6.88648 14.3425C6.52948 13.7588 6.27165 13.1128 6.11298 12.4045C5.95998 11.6905 5.88348 10.968 5.88348 10.237C5.88348 8.809 6.11015 7.64733 6.56348 6.752C7.01682 5.851 7.61748 5.188 8.36548 4.763C9.11915 4.338 9.94932 4.1255 10.856 4.1255C11.7343 4.1255 12.4993 4.28133 13.151 4.593C13.8083 4.90467 14.3155 5.32683 14.6725 5.8595C15.0352 6.39217 15.2165 6.99283 15.2165 7.6615C15.2165 8.19417 15.0777 8.57667 14.8 8.809C14.528 9.04133 14.1483 9.1575 13.661 9.1575C13.4683 9.1575 13.2898 9.14333 13.1255 9.115C12.9612 9.08667 12.7968 9.05267 12.6325 9.013ZM19.6514 16C19.419 16.0397 19.1867 16.0652 18.9544 16.0765C18.722 16.0935 18.5095 16.102 18.3169 16.102C18.1299 16.102 17.9089 16.0935 17.6539 16.0765C17.3989 16.0652 17.1552 16.0397 16.9229 16V4.491L17.0419 4.389H19.6344V5.1965C19.6344 5.66683 19.6372 6.14567 19.6429 6.633C19.6485 7.11467 19.6514 7.57933 19.6514 8.027V16ZM24.3094 4.389C24.3547 4.53633 24.3859 4.70917 24.4029 4.9075C24.4199 5.10017 24.4284 5.27583 24.4284 5.4345C24.4284 5.8765 24.3065 6.19667 24.0629 6.395C23.8249 6.59333 23.4622 6.6925 22.9749 6.6925H20.8499C20.4249 6.6925 20.0225 6.68967 19.6429 6.684C19.2689 6.67833 18.8949 6.6755 18.5209 6.6755V4.389H24.3094ZM23.2724 9.1065C23.3234 9.26517 23.3602 9.45217 23.3829 9.6675C23.4055 9.88283 23.4169 10.0642 23.4169 10.2115C23.4169 10.3645 23.4055 10.5487 23.3829 10.764C23.3602 10.9793 23.3234 11.1692 23.2724 11.3335H19.9744C19.7307 11.3335 19.4842 11.3307 19.2349 11.325C18.9855 11.3137 18.7787 11.3052 18.6144 11.2995V9.1405C18.7787 9.12917 18.9855 9.12067 19.2349 9.115C19.4842 9.10933 19.7307 9.1065 19.9744 9.1065H23.2724Z" fill="#414141"/>
</svg>
