<svg width="25" height="25" viewBox="0 0 25 25" fill="none" xmlns="http://www.w3.org/2000/svg">
<g clip-path="url(#clip0_112_33)">
<path d="M9.03589 10.866L6.22339 15.7374C5.66089 16.7117 5.22871 19.0602 7.99999 20.6602" stroke="white" stroke-width="2"/>
<path fill-rule="evenodd" clip-rule="evenodd" d="M13.7144 4.76258C13.8963 4.44746 14.3177 3.99548 14.9301 3.77831C15.336 3.63439 15.8844 3.57221 16.5901 3.79547C17.1166 3.96207 17.7238 3.81804 18 3.33975V3.33975C18.2761 2.86146 18.1151 2.23989 17.6021 2.03529C16.3489 1.53548 15.215 1.55525 14.2617 1.89331C13.1318 2.29399 12.3629 3.10343 11.9824 3.76258L9.76873 7.5967C9.70609 7.70519 9.8202 7.83596 9.93873 7.7954V7.7954C10.2202 7.6991 10.5157 7.62601 10.8244 7.58012C11.5986 7.46502 12.3566 7.11437 12.748 6.43653L13.7144 4.76258ZM10.9091 9.62159C10.9153 9.61086 10.9055 9.59797 10.8934 9.6007V9.6007C10.8808 9.60356 10.8783 9.62035 10.8895 9.62682V9.62682C10.8964 9.63077 10.9051 9.62843 10.9091 9.62159V9.62159Z" fill="white"/>
<path fill-rule="evenodd" clip-rule="evenodd" d="M13.7144 4.76259C13.8963 4.44747 14.3177 3.99548 14.9301 3.77831C15.4962 3.57758 16.3397 3.53586 17.5 4.20578L18.5 2.47372C16.889 1.54364 15.438 1.4762 14.2617 1.89332C13.1318 2.29399 12.3629 3.10343 11.9824 3.76259L13.7144 4.76259Z" fill="white"/>
<path d="M13.5 11.134C13.9783 11.4101 14.5899 11.2462 14.866 10.7679C15.1422 10.2897 14.9783 9.67806 14.5 9.40192L13.5 11.134ZM6.90191 16.5622L9.71441 11.6908L7.98236 10.6908L5.16986 15.5622L6.90191 16.5622ZM9.71441 11.6908C9.89635 11.3757 10.3177 10.9237 10.9301 10.7065C11.4962 10.5058 12.3397 10.4641 13.5 11.134L14.5 9.40192C12.889 8.47184 11.438 8.40439 10.2617 8.82151C9.13176 9.22219 8.36293 10.0316 7.98236 10.6908L9.71441 11.6908Z" fill="white"/>
<path d="M16.9641 13.134L19.7766 8.26259C20.3391 7.28831 20.7713 4.93975 18 3.33975" stroke="white" stroke-width="2"/>
<path fill-rule="evenodd" clip-rule="evenodd" d="M15.1066 14.3993C15.1192 14.3964 15.1217 14.3797 15.1105 14.3732V14.3732C15.1036 14.3692 15.0949 14.3716 15.0909 14.3784V14.3784C15.0847 14.3891 15.0945 14.402 15.1066 14.3993V14.3993ZM15.1756 16.4199C14.4014 16.535 13.6434 16.8856 13.252 17.5635L12.2856 19.2374C12.1036 19.5525 11.6823 20.0045 11.0699 20.2217C10.664 20.3656 10.1155 20.4278 9.40991 20.2045C8.88335 20.0379 8.27614 20.182 8 20.6603V20.6603C7.72386 21.1385 7.88493 21.7601 8.39792 21.9647C9.65109 22.4645 10.7849 22.4448 11.7383 22.1067C12.8682 21.706 13.6371 20.8966 14.0176 20.2374L16.2313 16.4033C16.2939 16.2948 16.1798 16.164 16.0613 16.2046V16.2046C15.7798 16.3009 15.4842 16.374 15.1756 16.4199Z" fill="white"/>
<path fill-rule="evenodd" clip-rule="evenodd" d="M12.2856 19.2374C12.1036 19.5525 11.6823 20.0045 11.0699 20.2217C10.5038 20.4224 9.66033 20.4642 8.5 19.7942L7.5 21.5263C9.11095 22.4564 10.562 22.5238 11.7383 22.1067C12.8682 21.706 13.6371 20.8966 14.0176 20.2374L12.2856 19.2374Z" fill="white"/>
<path d="M12.5 12.866C12.0217 12.5899 11.4101 12.7538 11.134 13.2321C10.8578 13.7103 11.0217 14.3219 11.5 14.5981L12.5 12.866ZM19.0981 7.43783L16.2856 12.3092L18.0176 13.3092L20.8301 8.43783L19.0981 7.43783ZM16.2856 12.3092C16.1037 12.6243 15.6823 13.0763 15.0699 13.2935C14.5038 13.4942 13.6603 13.5359 12.5 12.866L11.5 14.5981C13.111 15.5282 14.562 15.5956 15.7383 15.1785C16.8682 14.7778 17.6371 13.9684 18.0176 13.3092L16.2856 12.3092Z" fill="white"/>
</g>
<defs>
<clipPath id="clip0_112_33">
<rect width="25" height="25" fill="white"/>
</clipPath>
</defs>
</svg>
