<svg width="30" height="20" viewBox="0 0 30 20" fill="none" xmlns="http://www.w3.org/2000/svg">
<path d="M11.2969 7.547C11.3122 6.91067 11.2471 6.31267 11.1014 5.753C10.9634 5.18567 10.7104 4.7295 10.3424 4.3845C9.97439 4.03183 9.44922 3.8555 8.76689 3.8555C7.77789 3.8555 7.07256 4.3155 6.65089 5.2355C6.23689 6.1555 6.02989 7.48567 6.02989 9.226C6.02989 10.8667 6.30206 12.0972 6.84639 12.9175C7.39839 13.7302 8.17656 14.1365 9.18089 14.1365C9.97822 14.1365 10.6951 13.9678 11.3314 13.6305C11.9677 13.2932 12.5542 12.9252 13.0909 12.5265C13.4512 12.7642 13.8039 13.113 14.1489 13.573C14.4939 14.0253 14.7047 14.4662 14.7814 14.8955C14.3367 15.3325 13.7847 15.7388 13.1254 16.1145C12.4737 16.4825 11.7531 16.7777 10.9634 17C10.1737 17.23 9.35339 17.345 8.50239 17.345C7.29872 17.345 6.28672 17.1112 5.46639 16.6435C4.65372 16.1682 4.00589 15.5395 3.52289 14.7575C3.03989 13.9678 2.69106 13.0938 2.47639 12.1355C2.26939 11.1695 2.16589 10.192 2.16589 9.203C2.16589 7.271 2.47256 5.69933 3.08589 4.488C3.69922 3.269 4.51189 2.372 5.52389 1.797C6.54356 1.222 7.66672 0.934499 8.89339 0.934499C10.0817 0.934499 11.1167 1.14533 11.9984 1.567C12.8877 1.98867 13.5739 2.55983 14.0569 3.2805C14.5476 4.00117 14.7929 4.81383 14.7929 5.7185C14.7929 6.43917 14.6051 6.95667 14.2294 7.271C13.8614 7.58533 13.3477 7.7425 12.6884 7.7425C12.4277 7.7425 12.1862 7.72333 11.9639 7.685C11.7416 7.64667 11.5192 7.60067 11.2969 7.547ZM20.793 17C20.4787 17.0537 20.1643 17.0882 19.85 17.1035C19.5357 17.1265 19.2482 17.138 18.9875 17.138C18.7345 17.138 18.4355 17.1265 18.0905 17.1035C17.7455 17.0882 17.4158 17.0537 17.1015 17V1.429L17.2625 1.291H20.77V2.3835C20.77 3.01983 20.7738 3.66767 20.7815 4.327C20.7892 4.97867 20.793 5.60733 20.793 6.213V17ZM27.095 1.291C27.1563 1.49033 27.1985 1.72417 27.2215 1.9925C27.2445 2.25317 27.256 2.49083 27.256 2.7055C27.256 3.3035 27.0912 3.73667 26.7615 4.005C26.4395 4.27333 25.9488 4.4075 25.2895 4.4075H22.4145C21.8395 4.4075 21.2952 4.40367 20.7815 4.396C20.2755 4.38833 19.7695 4.3845 19.2635 4.3845V1.291H27.095ZM25.692 7.6735C25.761 7.88817 25.8108 8.14117 25.8415 8.4325C25.8722 8.72383 25.8875 8.96917 25.8875 9.1685C25.8875 9.3755 25.8722 9.62467 25.8415 9.916C25.8108 10.2073 25.761 10.4642 25.692 10.6865H21.23C20.9003 10.6865 20.5668 10.6827 20.2295 10.675C19.8922 10.6597 19.6123 10.6482 19.39 10.6405V7.7195C19.6123 7.70417 19.8922 7.69267 20.2295 7.685C20.5668 7.67733 20.9003 7.6735 21.23 7.6735H25.692Z" fill="#878787"/>
</svg>
