<svg width="141" height="25" viewBox="0 0 141 25" fill="none" xmlns="http://www.w3.org/2000/svg">
<path fill-rule="evenodd" clip-rule="evenodd" d="M7.63 11.058C7.21 11.838 7 12.75 7 13.794C7 14.838 7.21 15.75 7.63 16.53C8.062 17.31 8.656 17.91 9.412 18.33C10.18 18.75 11.056 18.96 12.04 18.96C13.288 18.96 14.338 18.624 15.19 17.952C16.042 17.28 16.6 16.356 16.864 15.18H13.588C13.312 15.948 12.778 16.332 11.986 16.332C11.422 16.332 10.972 16.116 10.636 15.684C10.3 15.24 10.132 14.61 10.132 13.794C10.132 12.978 10.3 12.354 10.636 11.922C10.972 11.478 11.422 11.256 11.986 11.256C12.778 11.256 13.312 11.64 13.588 12.408H16.864C16.6 11.208 16.042 10.278 15.19 9.61801C14.35 8.95801 13.3 8.62801 12.04 8.62801C11.056 8.62801 10.18 8.83801 9.412 9.25801C8.656 9.67801 8.062 10.278 7.63 11.058ZM20.4184 18.33C21.2104 18.75 22.0984 18.96 23.0824 18.96C24.0664 18.96 24.9544 18.75 25.7464 18.33C26.5504 17.91 27.1804 17.31 27.6364 16.53C28.1044 15.738 28.3384 14.826 28.3384 13.794C28.3384 12.762 28.1104 11.856 27.6544 11.076C27.1984 10.284 26.5744 9.67801 25.7824 9.25801C24.9904 8.83801 24.1024 8.62801 23.1184 8.62801C22.1344 8.62801 21.2464 8.83801 20.4544 9.25801C19.6624 9.67801 19.0384 10.284 18.5824 11.076C18.1264 11.856 17.8984 12.762 17.8984 13.794C17.8984 14.838 18.1204 15.75 18.5644 16.53C19.0204 17.31 19.6384 17.91 20.4184 18.33ZM24.5764 15.648C24.1684 16.08 23.6704 16.296 23.0824 16.296C22.4944 16.296 22.0024 16.08 21.6064 15.648C21.2224 15.216 21.0304 14.598 21.0304 13.794C21.0304 12.978 21.2284 12.36 21.6244 11.94C22.0204 11.508 22.5184 11.292 23.1184 11.292C23.7064 11.292 24.1984 11.508 24.5944 11.94C25.0024 12.372 25.2064 12.99 25.2064 13.794C25.2064 14.598 24.9964 15.216 24.5764 15.648ZM33.0494 18.816V5.49601H29.9714V18.816H33.0494ZM38.358 18.816V5.49601H35.28V18.816H38.358ZM50.0026 14.532C50.0386 14.22 50.0566 13.92 50.0566 13.632C50.0566 12.624 49.8406 11.742 49.4086 10.986C48.9886 10.23 48.4006 9.64801 47.6446 9.24001C46.8886 8.83201 46.0246 8.62801 45.0526 8.62801C44.0566 8.62801 43.1746 8.83801 42.4066 9.25801C41.6386 9.67801 41.0386 10.278 40.6066 11.058C40.1866 11.838 39.9766 12.75 39.9766 13.794C39.9766 14.838 40.1926 15.75 40.6246 16.53C41.0566 17.31 41.6566 17.91 42.4246 18.33C43.1926 18.75 44.0686 18.96 45.0526 18.96C45.8686 18.96 46.6066 18.81 47.2666 18.51C47.9266 18.21 48.4726 17.796 48.9046 17.268C49.3486 16.74 49.6546 16.146 49.8226 15.486H46.5466C46.2466 16.134 45.7126 16.458 44.9446 16.458C44.4286 16.458 43.9906 16.296 43.6306 15.972C43.2826 15.636 43.0846 15.156 43.0366 14.532H50.0026ZM46.3666 11.562C46.7266 11.874 46.9066 12.294 46.9066 12.822H43.0546C43.1386 12.27 43.3546 11.844 43.7026 11.544C44.0626 11.244 44.5006 11.094 45.0166 11.094C45.5566 11.094 46.0066 11.25 46.3666 11.562ZM61.0944 14.532C61.1304 14.22 61.1484 13.92 61.1484 13.632C61.1484 12.624 60.9324 11.742 60.5004 10.986C60.0804 10.23 59.4924 9.64801 58.7364 9.24001C57.9804 8.83201 57.1164 8.62801 56.1444 8.62801C55.1484 8.62801 54.2664 8.83801 53.4984 9.25801C52.7304 9.67801 52.1304 10.278 51.6984 11.058C51.2784 11.838 51.0684 12.75 51.0684 13.794C51.0684 14.838 51.2844 15.75 51.7164 16.53C52.1484 17.31 52.7484 17.91 53.5164 18.33C54.2844 18.75 55.1604 18.96 56.1444 18.96C56.9604 18.96 57.6984 18.81 58.3584 18.51C59.0184 18.21 59.5644 17.796 59.9964 17.268C60.4404 16.74 60.7464 16.146 60.9144 15.486H57.6384C57.3384 16.134 56.8044 16.458 56.0364 16.458C55.5204 16.458 55.0824 16.296 54.7224 15.972C54.3744 15.636 54.1764 15.156 54.1284 14.532H61.0944ZM57.4584 11.562C57.8184 11.874 57.9984 12.294 57.9984 12.822H54.1464C54.2304 12.27 54.4464 11.844 54.7944 11.544C55.1544 11.244 55.5924 11.094 56.1084 11.094C56.6484 11.094 57.0984 11.25 57.4584 11.562ZM71.7002 9.81601C71.0042 9.04801 70.0682 8.66401 68.8922 8.66401C68.2322 8.66401 67.6382 8.79601 67.1102 9.06001C66.5822 9.31201 66.1622 9.66001 65.8502 10.104V8.77201H62.7722V18.816H65.8502V13.362C65.8502 12.69 66.0242 12.168 66.3722 11.796C66.7202 11.424 67.1882 11.238 67.7762 11.238C68.3642 11.238 68.8322 11.424 69.1802 11.796C69.5282 12.168 69.7022 12.69 69.7022 13.362V18.816H72.7622V12.948C72.7622 11.616 72.4082 10.572 71.7002 9.81601ZM75.0091 18.492C75.3571 18.804 75.8011 18.96 76.3411 18.96C76.8691 18.96 77.3011 18.804 77.6371 18.492C77.9851 18.168 78.1591 17.772 78.1591 17.304C78.1591 16.824 77.9851 16.422 77.6371 16.098C77.3011 15.774 76.8691 15.612 76.3411 15.612C75.8011 15.612 75.3571 15.774 75.0091 16.098C74.6731 16.422 74.5051 16.824 74.5051 17.304C74.5051 17.772 74.6731 18.168 75.0091 18.492ZM88.9091 9.81601C88.2131 9.04801 87.2771 8.66401 86.1011 8.66401C85.4411 8.66401 84.8471 8.79601 84.3191 9.06001C83.7911 9.31201 83.3711 9.66001 83.0591 10.104V8.77201H79.9811V18.816H83.0591V13.362C83.0591 12.69 83.2331 12.168 83.5811 11.796C83.9291 11.424 84.3971 11.238 84.9851 11.238C85.5731 11.238 86.0411 11.424 86.3891 11.796C86.7371 12.168 86.9111 12.69 86.9111 13.362V18.816H89.9711V12.948C89.9711 11.616 89.6171 10.572 88.9091 9.81601ZM92.326 7.26001C92.674 7.57201 93.118 7.72801 93.6581 7.72801C94.1861 7.72801 94.618 7.57201 94.954 7.26001C95.302 6.93601 95.476 6.54001 95.476 6.07201C95.476 5.59201 95.302 5.19601 94.954 4.88401C94.618 4.56001 94.1861 4.39801 93.6581 4.39801C93.118 4.39801 92.674 4.56001 92.326 4.88401C91.99 5.19601 91.822 5.59201 91.822 6.07201C91.822 6.54001 91.99 6.93601 92.326 7.26001ZM92.11 18.816H95.188V8.77201H92.11V18.816ZM97.4366 11.058C97.0166 11.838 96.8066 12.75 96.8066 13.794C96.8066 14.838 97.0166 15.75 97.4366 16.53C97.8686 17.31 98.4626 17.91 99.2186 18.33C99.9866 18.75 100.863 18.96 101.847 18.96C103.095 18.96 104.145 18.624 104.997 17.952C105.849 17.28 106.407 16.356 106.671 15.18H103.395C103.119 15.948 102.585 16.332 101.793 16.332C101.229 16.332 100.779 16.116 100.443 15.684C100.107 15.24 99.9386 14.61 99.9386 13.794C99.9386 12.978 100.107 12.354 100.443 11.922C100.779 11.478 101.229 11.256 101.793 11.256C102.585 11.256 103.119 11.64 103.395 12.408H106.671C106.407 11.208 105.849 10.278 104.997 9.61801C104.157 8.95801 103.107 8.62801 101.847 8.62801C100.863 8.62801 99.9866 8.83801 99.2186 9.25801C98.4626 9.67801 97.8686 10.278 97.4366 11.058ZM110.225 18.33C111.017 18.75 111.905 18.96 112.889 18.96C113.873 18.96 114.761 18.75 115.553 18.33C116.357 17.91 116.987 17.31 117.443 16.53C117.911 15.738 118.145 14.826 118.145 13.794C118.145 12.762 117.917 11.856 117.461 11.076C117.005 10.284 116.381 9.67801 115.589 9.25801C114.797 8.83801 113.909 8.62801 112.925 8.62801C111.941 8.62801 111.053 8.83801 110.261 9.25801C109.469 9.67801 108.845 10.284 108.389 11.076C107.933 11.856 107.705 12.762 107.705 13.794C107.705 14.838 107.927 15.75 108.371 16.53C108.827 17.31 109.445 17.91 110.225 18.33ZM114.383 15.648C113.975 16.08 113.477 16.296 112.889 16.296C112.301 16.296 111.809 16.08 111.413 15.648C111.029 15.216 110.837 14.598 110.837 13.794C110.837 12.978 111.035 12.36 111.431 11.94C111.827 11.508 112.325 11.292 112.925 11.292C113.513 11.292 114.005 11.508 114.401 11.94C114.809 12.372 115.013 12.99 115.013 13.794C115.013 14.598 114.803 15.216 114.383 15.648ZM122.856 18.816V5.49601H119.778V18.816H122.856ZM134.501 14.532C134.537 14.22 134.555 13.92 134.555 13.632C134.555 12.624 134.339 11.742 133.907 10.986C133.487 10.23 132.899 9.64801 132.143 9.24001C131.387 8.83201 130.523 8.62801 129.551 8.62801C128.555 8.62801 127.673 8.83801 126.905 9.25801C126.137 9.67801 125.537 10.278 125.105 11.058C124.685 11.838 124.475 12.75 124.475 13.794C124.475 14.838 124.691 15.75 125.123 16.53C125.555 17.31 126.155 17.91 126.923 18.33C127.691 18.75 128.567 18.96 129.551 18.96C130.367 18.96 131.105 18.81 131.765 18.51C132.425 18.21 132.971 17.796 133.403 17.268C133.847 16.74 134.153 16.146 134.321 15.486H131.045C130.745 16.134 130.211 16.458 129.443 16.458C128.927 16.458 128.489 16.296 128.129 15.972C127.781 15.636 127.583 15.156 127.535 14.532H134.501ZM130.865 11.562C131.225 11.874 131.405 12.294 131.405 12.822H127.553C127.637 12.27 127.853 11.844 128.201 11.544C128.561 11.244 128.999 11.094 129.515 11.094C130.055 11.094 130.505 11.25 130.865 11.562Z" fill="#EDC7FA"/>
</svg>
