<svg width="41" height="25" viewBox="0 0 41 25" fill="none" xmlns="http://www.w3.org/2000/svg">
<g clip-path="url(#clip0_106_25)">
<path fill-rule="evenodd" clip-rule="evenodd" d="M5.4 4.484V2H0V22.196H5.4V19.694H2.88V4.484H5.4ZM8.41978 8.768C7.87978 9.74 7.60978 10.85 7.60978 12.098C7.60978 13.346 7.87978 14.456 8.41978 15.428C8.95978 16.4 9.70978 17.162 10.6698 17.714C11.6418 18.254 12.7398 18.524 13.9638 18.524C15.4638 18.524 16.7478 18.134 17.8158 17.354C18.8838 16.562 19.5978 15.482 19.9578 14.114H16.5738C16.3218 14.642 15.9618 15.044 15.4938 15.32C15.0378 15.596 14.5158 15.734 13.9278 15.734C12.9798 15.734 12.2118 15.404 11.6238 14.744C11.0358 14.084 10.7418 13.202 10.7418 12.098C10.7418 10.994 11.0358 10.112 11.6238 9.452C12.2118 8.792 12.9798 8.462 13.9278 8.462C14.5158 8.462 15.0378 8.6 15.4938 8.876C15.9618 9.152 16.3218 9.554 16.5738 10.082H19.9578C19.5978 8.714 18.8838 7.634 17.8158 6.842C16.7478 6.05 15.4638 5.654 13.9638 5.654C12.7398 5.654 11.6418 5.93 10.6698 6.482C9.70978 7.022 8.95978 7.784 8.41978 8.768ZM30.0687 18.434H33.1467V5.798H30.0687V13.628L24.9207 5.798H21.8427V18.434H24.9207V10.64L30.0687 18.434ZM35.8819 22.196H41.2819V2H35.8819V4.484H38.4019V19.694H35.8819V22.196Z" fill="white"/>
</g>
<defs>
<clipPath id="clip0_106_25">
<rect width="41" height="25" fill="white"/>
</clipPath>
</defs>
</svg>
