<svg width="140" height="25" viewBox="0 0 140 25" fill="none" xmlns="http://www.w3.org/2000/svg">
<path fill-rule="evenodd" clip-rule="evenodd" d="M6.85076 11.242C6.43076 12.022 6.22076 12.934 6.22076 13.978C6.22076 15.022 6.43076 15.934 6.85076 16.714C7.28276 17.494 7.87676 18.094 8.63276 18.514C9.40076 18.934 10.2768 19.144 11.2608 19.144C12.5088 19.144 13.5588 18.808 14.4108 18.136C15.2628 17.464 15.8208 16.54 16.0848 15.364H12.8088C12.5328 16.132 11.9988 16.516 11.2068 16.516C10.6428 16.516 10.1928 16.3 9.85676 15.868C9.52076 15.424 9.35276 14.794 9.35276 13.978C9.35276 13.162 9.52076 12.538 9.85676 12.106C10.1928 11.662 10.6428 11.44 11.2068 11.44C11.9988 11.44 12.5328 11.824 12.8088 12.592H16.0848C15.8208 11.392 15.2628 10.462 14.4108 9.802C13.5708 9.142 12.5208 8.812 11.2608 8.812C10.2768 8.812 9.40076 9.022 8.63276 9.442C7.87676 9.862 7.28276 10.462 6.85076 11.242ZM19.6392 18.514C20.4312 18.934 21.3192 19.144 22.3032 19.144C23.2872 19.144 24.1752 18.934 24.9672 18.514C25.7712 18.094 26.4012 17.494 26.8572 16.714C27.3252 15.922 27.5592 15.01 27.5592 13.978C27.5592 12.946 27.3312 12.04 26.8752 11.26C26.4192 10.468 25.7952 9.862 25.0032 9.442C24.2112 9.022 23.3232 8.812 22.3392 8.812C21.3552 8.812 20.4672 9.022 19.6752 9.442C18.8832 9.862 18.2592 10.468 17.8032 11.26C17.3472 12.04 17.1192 12.946 17.1192 13.978C17.1192 15.022 17.3412 15.934 17.7852 16.714C18.2412 17.494 18.8592 18.094 19.6392 18.514ZM23.7972 15.832C23.3892 16.264 22.8912 16.48 22.3032 16.48C21.7152 16.48 21.2232 16.264 20.8272 15.832C20.4432 15.4 20.2512 14.782 20.2512 13.978C20.2512 13.162 20.4492 12.544 20.8452 12.124C21.2412 11.692 21.7392 11.476 22.3392 11.476C22.9272 11.476 23.4192 11.692 23.8152 12.124C24.2232 12.556 24.4272 13.174 24.4272 13.978C24.4272 14.782 24.2172 15.4 23.7972 15.832ZM32.2701 19V5.68H29.1921V19H32.2701ZM37.5787 19V5.68H34.5007V19H37.5787ZM49.2233 14.716C49.2593 14.404 49.2773 14.104 49.2773 13.816C49.2773 12.808 49.0613 11.926 48.6293 11.17C48.2093 10.414 47.6213 9.832 46.8653 9.424C46.1093 9.016 45.2453 8.812 44.2733 8.812C43.2773 8.812 42.3953 9.022 41.6273 9.442C40.8593 9.862 40.2593 10.462 39.8273 11.242C39.4073 12.022 39.1973 12.934 39.1973 13.978C39.1973 15.022 39.4133 15.934 39.8453 16.714C40.2773 17.494 40.8773 18.094 41.6453 18.514C42.4133 18.934 43.2893 19.144 44.2733 19.144C45.0893 19.144 45.8273 18.994 46.4873 18.694C47.1473 18.394 47.6933 17.98 48.1253 17.452C48.5693 16.924 48.8753 16.33 49.0433 15.67H45.7673C45.4673 16.318 44.9333 16.642 44.1653 16.642C43.6493 16.642 43.2113 16.48 42.8513 16.156C42.5033 15.82 42.3053 15.34 42.2573 14.716H49.2233ZM45.5873 11.746C45.9473 12.058 46.1273 12.478 46.1273 13.006H42.2753C42.3593 12.454 42.5753 12.028 42.9233 11.728C43.2833 11.428 43.7213 11.278 44.2373 11.278C44.7773 11.278 45.2273 11.434 45.5873 11.746ZM60.3151 14.716C60.3511 14.404 60.3691 14.104 60.3691 13.816C60.3691 12.808 60.1531 11.926 59.7211 11.17C59.3011 10.414 58.7131 9.832 57.9571 9.424C57.2011 9.016 56.3371 8.812 55.3651 8.812C54.3691 8.812 53.4871 9.022 52.7191 9.442C51.9511 9.862 51.3511 10.462 50.9191 11.242C50.4991 12.022 50.2891 12.934 50.2891 13.978C50.2891 15.022 50.5051 15.934 50.9371 16.714C51.3691 17.494 51.9691 18.094 52.7371 18.514C53.5051 18.934 54.3811 19.144 55.3651 19.144C56.1811 19.144 56.9191 18.994 57.5791 18.694C58.2391 18.394 58.7851 17.98 59.2171 17.452C59.6611 16.924 59.9671 16.33 60.1351 15.67H56.8591C56.5591 16.318 56.0251 16.642 55.2571 16.642C54.7411 16.642 54.3031 16.48 53.9431 16.156C53.5951 15.82 53.3971 15.34 53.3491 14.716H60.3151ZM56.6791 11.746C57.0391 12.058 57.2191 12.478 57.2191 13.006H53.3671C53.4511 12.454 53.6671 12.028 54.0151 11.728C54.3751 11.428 54.8131 11.278 55.3291 11.278C55.8691 11.278 56.3191 11.434 56.6791 11.746ZM70.9209 10C70.2249 9.232 69.2889 8.848 68.1129 8.848C67.4529 8.848 66.8589 8.98 66.3309 9.244C65.8029 9.496 65.3829 9.844 65.0709 10.288V8.956H61.9929V19H65.0709V13.546C65.0709 12.874 65.2449 12.352 65.5929 11.98C65.9409 11.608 66.4089 11.422 66.9969 11.422C67.5849 11.422 68.0529 11.608 68.4009 11.98C68.7489 12.352 68.9229 12.874 68.9229 13.546V19H71.9829V13.132C71.9829 11.8 71.6289 10.756 70.9209 10ZM74.2298 18.676C74.5778 18.988 75.0218 19.144 75.5618 19.144C76.0898 19.144 76.5218 18.988 76.8578 18.676C77.2058 18.352 77.3798 17.956 77.3798 17.488C77.3798 17.008 77.2058 16.606 76.8578 16.282C76.5218 15.958 76.0898 15.796 75.5618 15.796C75.0218 15.796 74.5778 15.958 74.2298 16.282C73.8938 16.606 73.7258 17.008 73.7258 17.488C73.7258 17.956 73.8938 18.352 74.2298 18.676ZM88.1299 10C87.4339 9.232 86.4979 8.848 85.3219 8.848C84.6619 8.848 84.0679 8.98 83.5399 9.244C83.0119 9.496 82.5919 9.844 82.2799 10.288V8.956H79.2019V19H82.2799V13.546C82.2799 12.874 82.4539 12.352 82.8019 11.98C83.1499 11.608 83.6179 11.422 84.2059 11.422C84.7939 11.422 85.2619 11.608 85.6099 11.98C85.9579 12.352 86.1319 12.874 86.1319 13.546V19H89.1919V13.132C89.1919 11.8 88.8379 10.756 88.1299 10ZM91.5468 7.444C91.8948 7.756 92.3388 7.912 92.8788 7.912C93.4068 7.912 93.8388 7.756 94.1748 7.444C94.5228 7.12 94.6968 6.724 94.6968 6.256C94.6968 5.776 94.5228 5.38 94.1748 5.068C93.8388 4.744 93.4068 4.582 92.8788 4.582C92.3388 4.582 91.8948 4.744 91.5468 5.068C91.2108 5.38 91.0428 5.776 91.0428 6.256C91.0428 6.724 91.2108 7.12 91.5468 7.444ZM91.3308 19H94.4088V8.956H91.3308V19ZM96.6574 11.242C96.2374 12.022 96.0274 12.934 96.0274 13.978C96.0274 15.022 96.2374 15.934 96.6574 16.714C97.0894 17.494 97.6834 18.094 98.4394 18.514C99.2074 18.934 100.083 19.144 101.067 19.144C102.315 19.144 103.365 18.808 104.217 18.136C105.069 17.464 105.627 16.54 105.891 15.364H102.615C102.339 16.132 101.805 16.516 101.013 16.516C100.449 16.516 99.9994 16.3 99.6634 15.868C99.3274 15.424 99.1594 14.794 99.1594 13.978C99.1594 13.162 99.3274 12.538 99.6634 12.106C99.9994 11.662 100.449 11.44 101.013 11.44C101.805 11.44 102.339 11.824 102.615 12.592H105.891C105.627 11.392 105.069 10.462 104.217 9.802C103.377 9.142 102.327 8.812 101.067 8.812C100.083 8.812 99.2074 9.022 98.4394 9.442C97.6834 9.862 97.0894 10.462 96.6574 11.242ZM109.446 18.514C110.238 18.934 111.126 19.144 112.11 19.144C113.094 19.144 113.982 18.934 114.774 18.514C115.578 18.094 116.208 17.494 116.664 16.714C117.132 15.922 117.366 15.01 117.366 13.978C117.366 12.946 117.138 12.04 116.682 11.26C116.226 10.468 115.602 9.862 114.81 9.442C114.018 9.022 113.13 8.812 112.146 8.812C111.162 8.812 110.274 9.022 109.482 9.442C108.69 9.862 108.066 10.468 107.61 11.26C107.154 12.04 106.926 12.946 106.926 13.978C106.926 15.022 107.148 15.934 107.592 16.714C108.048 17.494 108.666 18.094 109.446 18.514ZM113.604 15.832C113.196 16.264 112.698 16.48 112.11 16.48C111.522 16.48 111.03 16.264 110.634 15.832C110.25 15.4 110.058 14.782 110.058 13.978C110.058 13.162 110.256 12.544 110.652 12.124C111.048 11.692 111.546 11.476 112.146 11.476C112.734 11.476 113.226 11.692 113.622 12.124C114.03 12.556 114.234 13.174 114.234 13.978C114.234 14.782 114.024 15.4 113.604 15.832ZM122.077 19V5.68H118.999V19H122.077ZM133.721 14.716C133.757 14.404 133.775 14.104 133.775 13.816C133.775 12.808 133.559 11.926 133.127 11.17C132.707 10.414 132.119 9.832 131.363 9.424C130.607 9.016 129.743 8.812 128.771 8.812C127.775 8.812 126.893 9.022 126.125 9.442C125.357 9.862 124.757 10.462 124.325 11.242C123.905 12.022 123.695 12.934 123.695 13.978C123.695 15.022 123.911 15.934 124.343 16.714C124.775 17.494 125.375 18.094 126.143 18.514C126.911 18.934 127.787 19.144 128.771 19.144C129.587 19.144 130.325 18.994 130.985 18.694C131.645 18.394 132.191 17.98 132.623 17.452C133.067 16.924 133.373 16.33 133.541 15.67H130.265C129.965 16.318 129.431 16.642 128.663 16.642C128.147 16.642 127.709 16.48 127.349 16.156C127.001 15.82 126.803 15.34 126.755 14.716H133.721ZM130.085 11.746C130.445 12.058 130.625 12.478 130.625 13.006H126.773C126.857 12.454 127.073 12.028 127.421 11.728C127.781 11.428 128.219 11.278 128.735 11.278C129.275 11.278 129.725 11.434 130.085 11.746Z" fill="white"/>
</svg>
