<svg width="140" height="25" viewBox="0 0 140 25" fill="none" xmlns="http://www.w3.org/2000/svg">
<path fill-rule="evenodd" clip-rule="evenodd" d="M6.66998 11.058C6.24998 11.838 6.03998 12.75 6.03998 13.794C6.03998 14.838 6.24998 15.75 6.66998 16.53C7.10198 17.31 7.69598 17.91 8.45198 18.33C9.21998 18.75 10.096 18.96 11.08 18.96C12.328 18.96 13.378 18.624 14.23 17.952C15.082 17.28 15.64 16.356 15.904 15.18H12.628C12.352 15.948 11.818 16.332 11.026 16.332C10.462 16.332 10.012 16.116 9.67598 15.684C9.33998 15.24 9.17198 14.61 9.17198 13.794C9.17198 12.978 9.33998 12.354 9.67598 11.922C10.012 11.478 10.462 11.256 11.026 11.256C11.818 11.256 12.352 11.64 12.628 12.408H15.904C15.64 11.208 15.082 10.278 14.23 9.61801C13.39 8.95801 12.34 8.62801 11.08 8.62801C10.096 8.62801 9.21998 8.83801 8.45198 9.25801C7.69598 9.67801 7.10198 10.278 6.66998 11.058ZM19.4584 18.33C20.2504 18.75 21.1384 18.96 22.1224 18.96C23.1064 18.96 23.9944 18.75 24.7864 18.33C25.5904 17.91 26.2204 17.31 26.6764 16.53C27.1444 15.738 27.3784 14.826 27.3784 13.794C27.3784 12.762 27.1504 11.856 26.6944 11.076C26.2384 10.284 25.6144 9.67801 24.8224 9.25801C24.0304 8.83801 23.1424 8.62801 22.1584 8.62801C21.1744 8.62801 20.2864 8.83801 19.4944 9.25801C18.7024 9.67801 18.0784 10.284 17.6224 11.076C17.1664 11.856 16.9384 12.762 16.9384 13.794C16.9384 14.838 17.1604 15.75 17.6044 16.53C18.0604 17.31 18.6784 17.91 19.4584 18.33ZM23.6164 15.648C23.2084 16.08 22.7104 16.296 22.1224 16.296C21.5344 16.296 21.0424 16.08 20.6464 15.648C20.2624 15.216 20.0704 14.598 20.0704 13.794C20.0704 12.978 20.2684 12.36 20.6644 11.94C21.0604 11.508 21.5584 11.292 22.1584 11.292C22.7464 11.292 23.2384 11.508 23.6344 11.94C24.0424 12.372 24.2464 12.99 24.2464 13.794C24.2464 14.598 24.0364 15.216 23.6164 15.648ZM32.0894 18.816V5.49601H29.0114V18.816H32.0894ZM37.3979 18.816V5.49601H34.3199V18.816H37.3979ZM49.0425 14.532C49.0785 14.22 49.0965 13.92 49.0965 13.632C49.0965 12.624 48.8805 11.742 48.4485 10.986C48.0285 10.23 47.4405 9.64801 46.6845 9.24001C45.9285 8.83201 45.0645 8.62801 44.0925 8.62801C43.0965 8.62801 42.2145 8.83801 41.4465 9.25801C40.6785 9.67801 40.0785 10.278 39.6465 11.058C39.2265 11.838 39.0165 12.75 39.0165 13.794C39.0165 14.838 39.2325 15.75 39.6645 16.53C40.0965 17.31 40.6965 17.91 41.4645 18.33C42.2325 18.75 43.1085 18.96 44.0925 18.96C44.9085 18.96 45.6465 18.81 46.3065 18.51C46.9665 18.21 47.5125 17.796 47.9445 17.268C48.3885 16.74 48.6945 16.146 48.8625 15.486H45.5865C45.2865 16.134 44.7525 16.458 43.9845 16.458C43.4685 16.458 43.0305 16.296 42.6705 15.972C42.3225 15.636 42.1245 15.156 42.0765 14.532H49.0425ZM45.4065 11.562C45.7665 11.874 45.9465 12.294 45.9465 12.822H42.0945C42.1785 12.27 42.3945 11.844 42.7425 11.544C43.1025 11.244 43.5405 11.094 44.0565 11.094C44.5965 11.094 45.0465 11.25 45.4065 11.562ZM60.1343 14.532C60.1703 14.22 60.1883 13.92 60.1883 13.632C60.1883 12.624 59.9723 11.742 59.5403 10.986C59.1203 10.23 58.5323 9.64801 57.7763 9.24001C57.0203 8.83201 56.1563 8.62801 55.1843 8.62801C54.1883 8.62801 53.3063 8.83801 52.5383 9.25801C51.7703 9.67801 51.1703 10.278 50.7383 11.058C50.3183 11.838 50.1083 12.75 50.1083 13.794C50.1083 14.838 50.3243 15.75 50.7563 16.53C51.1883 17.31 51.7883 17.91 52.5563 18.33C53.3243 18.75 54.2003 18.96 55.1843 18.96C56.0003 18.96 56.7383 18.81 57.3983 18.51C58.0583 18.21 58.6043 17.796 59.0363 17.268C59.4803 16.74 59.7863 16.146 59.9543 15.486H56.6783C56.3783 16.134 55.8443 16.458 55.0763 16.458C54.5603 16.458 54.1223 16.296 53.7623 15.972C53.4143 15.636 53.2163 15.156 53.1683 14.532H60.1343ZM56.4983 11.562C56.8583 11.874 57.0383 12.294 57.0383 12.822H53.1863C53.2703 12.27 53.4863 11.844 53.8343 11.544C54.1943 11.244 54.6323 11.094 55.1483 11.094C55.6883 11.094 56.1383 11.25 56.4983 11.562ZM70.7401 9.81601C70.0441 9.04801 69.1081 8.66401 67.9321 8.66401C67.2721 8.66401 66.6781 8.79601 66.1501 9.06001C65.6221 9.31201 65.2021 9.66001 64.8901 10.104V8.77201H61.8121V18.816H64.8901V13.362C64.8901 12.69 65.0641 12.168 65.4121 11.796C65.7601 11.424 66.2281 11.238 66.8161 11.238C67.4041 11.238 67.8721 11.424 68.2201 11.796C68.5681 12.168 68.7421 12.69 68.7421 13.362V18.816H71.8021V12.948C71.8021 11.616 71.4481 10.572 70.7401 9.81601ZM74.049 18.492C74.397 18.804 74.841 18.96 75.381 18.96C75.909 18.96 76.341 18.804 76.677 18.492C77.025 18.168 77.199 17.772 77.199 17.304C77.199 16.824 77.025 16.422 76.677 16.098C76.341 15.774 75.909 15.612 75.381 15.612C74.841 15.612 74.397 15.774 74.049 16.098C73.713 16.422 73.545 16.824 73.545 17.304C73.545 17.772 73.713 18.168 74.049 18.492ZM87.9491 9.81601C87.2531 9.04801 86.3171 8.66401 85.1411 8.66401C84.4811 8.66401 83.8871 8.79601 83.3591 9.06001C82.8311 9.31201 82.4111 9.66001 82.0991 10.104V8.77201H79.0211V18.816H82.0991V13.362C82.0991 12.69 82.2731 12.168 82.6211 11.796C82.9691 11.424 83.4371 11.238 84.0251 11.238C84.6131 11.238 85.0811 11.424 85.4291 11.796C85.7771 12.168 85.9511 12.69 85.9511 13.362V18.816H89.0111V12.948C89.0111 11.616 88.6571 10.572 87.9491 9.81601ZM91.366 7.26001C91.714 7.57201 92.158 7.72801 92.698 7.72801C93.226 7.72801 93.658 7.57201 93.994 7.26001C94.342 6.93601 94.516 6.54001 94.516 6.07201C94.516 5.59201 94.342 5.19601 93.994 4.88401C93.658 4.56001 93.226 4.39801 92.698 4.39801C92.158 4.39801 91.714 4.56001 91.366 4.88401C91.03 5.19601 90.862 5.59201 90.862 6.07201C90.862 6.54001 91.03 6.93601 91.366 7.26001ZM91.15 18.816H94.228V8.77201H91.15V18.816ZM96.4766 11.058C96.0566 11.838 95.8466 12.75 95.8466 13.794C95.8466 14.838 96.0566 15.75 96.4766 16.53C96.9086 17.31 97.5026 17.91 98.2586 18.33C99.0266 18.75 99.9026 18.96 100.887 18.96C102.135 18.96 103.185 18.624 104.037 17.952C104.889 17.28 105.447 16.356 105.711 15.18H102.435C102.159 15.948 101.625 16.332 100.833 16.332C100.269 16.332 99.8186 16.116 99.4826 15.684C99.1466 15.24 98.9786 14.61 98.9786 13.794C98.9786 12.978 99.1466 12.354 99.4826 11.922C99.8186 11.478 100.269 11.256 100.833 11.256C101.625 11.256 102.159 11.64 102.435 12.408H105.711C105.447 11.208 104.889 10.278 104.037 9.61801C103.197 8.95801 102.147 8.62801 100.887 8.62801C99.9026 8.62801 99.0266 8.83801 98.2586 9.25801C97.5026 9.67801 96.9086 10.278 96.4766 11.058ZM109.265 18.33C110.057 18.75 110.945 18.96 111.929 18.96C112.913 18.96 113.801 18.75 114.593 18.33C115.397 17.91 116.027 17.31 116.483 16.53C116.951 15.738 117.185 14.826 117.185 13.794C117.185 12.762 116.957 11.856 116.501 11.076C116.045 10.284 115.421 9.67801 114.629 9.25801C113.837 8.83801 112.949 8.62801 111.965 8.62801C110.981 8.62801 110.093 8.83801 109.301 9.25801C108.509 9.67801 107.885 10.284 107.429 11.076C106.973 11.856 106.745 12.762 106.745 13.794C106.745 14.838 106.967 15.75 107.411 16.53C107.867 17.31 108.485 17.91 109.265 18.33ZM113.423 15.648C113.015 16.08 112.517 16.296 111.929 16.296C111.341 16.296 110.849 16.08 110.453 15.648C110.069 15.216 109.877 14.598 109.877 13.794C109.877 12.978 110.075 12.36 110.471 11.94C110.867 11.508 111.365 11.292 111.965 11.292C112.553 11.292 113.045 11.508 113.441 11.94C113.849 12.372 114.053 12.99 114.053 13.794C114.053 14.598 113.843 15.216 113.423 15.648ZM121.896 18.816V5.49601H118.818V18.816H121.896ZM133.541 14.532C133.577 14.22 133.595 13.92 133.595 13.632C133.595 12.624 133.379 11.742 132.947 10.986C132.527 10.23 131.939 9.64801 131.183 9.24001C130.427 8.83201 129.563 8.62801 128.591 8.62801C127.595 8.62801 126.713 8.83801 125.945 9.25801C125.177 9.67801 124.577 10.278 124.145 11.058C123.725 11.838 123.515 12.75 123.515 13.794C123.515 14.838 123.731 15.75 124.163 16.53C124.595 17.31 125.195 17.91 125.963 18.33C126.731 18.75 127.607 18.96 128.591 18.96C129.407 18.96 130.145 18.81 130.805 18.51C131.465 18.21 132.011 17.796 132.443 17.268C132.887 16.74 133.193 16.146 133.361 15.486H130.085C129.785 16.134 129.251 16.458 128.483 16.458C127.967 16.458 127.529 16.296 127.169 15.972C126.821 15.636 126.623 15.156 126.575 14.532H133.541ZM129.905 11.562C130.265 11.874 130.445 12.294 130.445 12.822H126.593C126.677 12.27 126.893 11.844 127.241 11.544C127.601 11.244 128.039 11.094 128.555 11.094C129.095 11.094 129.545 11.25 129.905 11.562Z" fill="white"/>
</svg>
